%TF.GenerationSoftware,KiCad,Pcbnew,9.0.0*%
%TF.CreationDate,2025-05-02T12:59:00-05:00*%
%TF.ProjectId,ioWatch,696f5761-7463-4682-9e6b-696361645f70,rev?*%
%TF.SameCoordinates,Original*%
%TF.FileFunction,Legend,Top*%
%TF.FilePolarity,Positive*%
%FSLAX46Y46*%
G04 Gerber Fmt 4.6, Leading zero omitted, Abs format (unit mm)*
G04 Created by KiCad (PCBNEW 9.0.0) date 2025-05-02 12:59:00*
%MOMM*%
%LPD*%
G01*
G04 APERTURE LIST*
G04 Aperture macros list*
%AMRoundRect*
0 Rectangle with rounded corners*
0 $1 Rounding radius*
0 $2 $3 $4 $5 $6 $7 $8 $9 X,Y pos of 4 corners*
0 Add a 4 corners polygon primitive as box body*
4,1,4,$2,$3,$4,$5,$6,$7,$8,$9,$2,$3,0*
0 Add four circle primitives for the rounded corners*
1,1,$1+$1,$2,$3*
1,1,$1+$1,$4,$5*
1,1,$1+$1,$6,$7*
1,1,$1+$1,$8,$9*
0 Add four rect primitives between the rounded corners*
20,1,$1+$1,$2,$3,$4,$5,0*
20,1,$1+$1,$4,$5,$6,$7,0*
20,1,$1+$1,$6,$7,$8,$9,0*
20,1,$1+$1,$8,$9,$2,$3,0*%
%AMFreePoly0*
4,1,14,0.230680,0.111820,0.364320,-0.021820,0.377500,-0.053640,0.377500,-0.080000,0.364320,-0.111820,0.332500,-0.125000,-0.332500,-0.125000,-0.364320,-0.111820,-0.377500,-0.080000,-0.377500,0.080000,-0.364320,0.111820,-0.332500,0.125000,0.198860,0.125000,0.230680,0.111820,0.230680,0.111820,$1*%
%AMFreePoly1*
4,1,14,0.364320,0.111820,0.377500,0.080000,0.377500,0.053640,0.364320,0.021820,0.230680,-0.111820,0.198860,-0.125000,-0.332500,-0.125000,-0.364320,-0.111820,-0.377500,-0.080000,-0.377500,0.080000,-0.364320,0.111820,-0.332500,0.125000,0.332500,0.125000,0.364320,0.111820,0.364320,0.111820,$1*%
%AMFreePoly2*
4,1,14,0.111820,0.364320,0.125000,0.332500,0.125000,-0.332500,0.111820,-0.364320,0.080000,-0.377500,-0.080000,-0.377500,-0.111820,-0.364320,-0.125000,-0.332500,-0.125000,0.198860,-0.111820,0.230680,0.021820,0.364320,0.053640,0.377500,0.080000,0.377500,0.111820,0.364320,0.111820,0.364320,$1*%
%AMFreePoly3*
4,1,14,-0.021820,0.364320,0.111820,0.230680,0.125000,0.198860,0.125000,-0.332500,0.111820,-0.364320,0.080000,-0.377500,-0.080000,-0.377500,-0.111820,-0.364320,-0.125000,-0.332500,-0.125000,0.332500,-0.111820,0.364320,-0.080000,0.377500,-0.053640,0.377500,-0.021820,0.364320,-0.021820,0.364320,$1*%
%AMFreePoly4*
4,1,14,0.364320,0.111820,0.377500,0.080000,0.377500,-0.080000,0.364320,-0.111820,0.332500,-0.125000,-0.198860,-0.125000,-0.230680,-0.111820,-0.364320,0.021820,-0.377500,0.053640,-0.377500,0.080000,-0.364320,0.111820,-0.332500,0.125000,0.332500,0.125000,0.364320,0.111820,0.364320,0.111820,$1*%
%AMFreePoly5*
4,1,14,0.364320,0.111820,0.377500,0.080000,0.377500,-0.080000,0.364320,-0.111820,0.332500,-0.125000,-0.332500,-0.125000,-0.364320,-0.111820,-0.377500,-0.080000,-0.377500,-0.053640,-0.364320,-0.021820,-0.230680,0.111820,-0.198860,0.125000,0.332500,0.125000,0.364320,0.111820,0.364320,0.111820,$1*%
%AMFreePoly6*
4,1,14,0.111820,0.364320,0.125000,0.332500,0.125000,-0.198860,0.111820,-0.230680,-0.021820,-0.364320,-0.053640,-0.377500,-0.080000,-0.377500,-0.111820,-0.364320,-0.125000,-0.332500,-0.125000,0.332500,-0.111820,0.364320,-0.080000,0.377500,0.080000,0.377500,0.111820,0.364320,0.111820,0.364320,$1*%
%AMFreePoly7*
4,1,14,0.111820,0.364320,0.125000,0.332500,0.125000,-0.332500,0.111820,-0.364320,0.080000,-0.377500,0.053640,-0.377500,0.021820,-0.364320,-0.111820,-0.230680,-0.125000,-0.198860,-0.125000,0.332500,-0.111820,0.364320,-0.080000,0.377500,0.080000,0.377500,0.111820,0.364320,0.111820,0.364320,$1*%
G04 Aperture macros list end*
%ADD10C,0.100000*%
%ADD11C,0.254000*%
%ADD12C,0.120000*%
%ADD13C,0.000000*%
%ADD14C,0.600000*%
%ADD15C,0.250000*%
%ADD16RoundRect,0.100000X0.029696X0.161301X-0.163522X-0.012672X-0.029696X-0.161301X0.163522X0.012672X0*%
%ADD17RoundRect,0.100000X-0.124843X0.106368X-0.070786X-0.147950X0.124843X-0.106368X0.070786X0.147950X0*%
%ADD18RoundRect,0.100000X0.085863X-0.139741X0.113041X0.118835X-0.085863X0.139741X-0.113041X-0.118835X0*%
%ADD19RoundRect,0.100000X-0.118835X-0.113041X0.139741X-0.085863X0.118835X0.113041X-0.139741X0.085863X0*%
%ADD20RoundRect,0.100000X-0.038479X0.159435X-0.144230X-0.078087X0.038479X-0.159435X0.144230X0.078087X0*%
%ADD21RoundRect,0.100000X-0.157314X0.046394X-0.004490X-0.163951X0.157314X-0.046394X0.004490X0.163951X0*%
%ADD22RoundRect,0.050800X-0.615000X-0.680000X0.615000X-0.680000X0.615000X0.680000X-0.615000X0.680000X0*%
%ADD23RoundRect,0.100000X-0.085863X0.139741X-0.113041X-0.118835X0.085863X-0.139741X0.113041X0.118835X0*%
%ADD24RoundRect,0.100000X-0.163951X-0.004490X0.046394X-0.157314X0.163951X0.004490X-0.046394X0.157314X0*%
%ADD25RoundRect,0.100000X0.161301X-0.029696X-0.012672X0.163522X-0.161301X0.029696X0.012672X-0.163522X0*%
%ADD26RoundRect,0.100000X-0.147950X-0.070786X0.106368X-0.124843X0.147950X0.070786X-0.106368X0.124843X0*%
%ADD27RoundRect,0.100000X-0.151603X0.062583X-0.021603X-0.162583X0.151603X-0.062583X0.021603X0.162583X0*%
%ADD28RoundRect,0.100000X0.100000X-0.130000X0.100000X0.130000X-0.100000X0.130000X-0.100000X-0.130000X0*%
%ADD29RoundRect,0.087500X-0.087500X0.225000X-0.087500X-0.225000X0.087500X-0.225000X0.087500X0.225000X0*%
%ADD30RoundRect,0.087500X-0.225000X0.087500X-0.225000X-0.087500X0.225000X-0.087500X0.225000X0.087500X0*%
%ADD31RoundRect,0.100000X0.038479X-0.159435X0.144230X0.078087X-0.038479X0.159435X-0.144230X-0.078087X0*%
%ADD32RoundRect,0.100000X0.130000X0.100000X-0.130000X0.100000X-0.130000X-0.100000X0.130000X-0.100000X0*%
%ADD33RoundRect,0.100000X-0.021603X0.162583X-0.151603X-0.062583X0.021603X-0.162583X0.151603X0.062583X0*%
%ADD34RoundRect,0.100000X0.021603X-0.162583X0.151603X0.062583X-0.021603X0.162583X-0.151603X-0.062583X0*%
%ADD35RoundRect,0.100000X0.012672X0.163522X-0.161301X-0.029696X-0.012672X-0.163522X0.161301X0.029696X0*%
%ADD36RoundRect,0.100000X0.092736X0.135278X-0.154539X0.054933X-0.092736X-0.135278X0.154539X-0.054933X0*%
%ADD37RoundRect,0.100000X0.162583X0.021603X-0.062583X0.151603X-0.162583X-0.021603X0.062583X-0.151603X0*%
%ADD38RoundRect,0.100000X-0.078087X-0.144230X0.159435X-0.038479X0.078087X0.144230X-0.159435X0.038479X0*%
%ADD39RoundRect,0.100000X0.062583X0.151603X-0.162583X0.021603X-0.062583X-0.151603X0.162583X-0.021603X0*%
%ADD40RoundRect,0.100000X0.124843X-0.106368X0.070786X0.147950X-0.124843X0.106368X-0.070786X-0.147950X0*%
%ADD41RoundRect,0.100000X-0.046394X-0.157314X0.163951X-0.004490X0.046394X0.157314X-0.163951X0.004490X0*%
%ADD42RoundRect,0.140000X0.140000X0.170000X-0.140000X0.170000X-0.140000X-0.170000X0.140000X-0.170000X0*%
%ADD43RoundRect,0.100000X-0.062583X-0.151603X0.162583X-0.021603X0.062583X0.151603X-0.162583X0.021603X0*%
%ADD44RoundRect,0.100000X0.159435X0.038479X-0.078087X0.144230X-0.159435X-0.038479X0.078087X-0.144230X0*%
%ADD45RoundRect,0.100000X0.106368X0.124843X-0.147950X0.070786X-0.106368X-0.124843X0.147950X-0.070786X0*%
%ADD46RoundRect,0.100000X0.135278X-0.092736X0.054933X0.154539X-0.135278X0.092736X-0.054933X-0.154539X0*%
%ADD47RoundRect,0.100000X-0.004490X0.163951X-0.157314X-0.046394X0.004490X-0.163951X0.157314X0.046394X0*%
%ADD48RoundRect,0.100000X-0.070786X0.147950X-0.124843X-0.106368X0.070786X-0.147950X0.124843X0.106368X0*%
%ADD49RoundRect,0.100000X-0.161301X0.029696X0.012672X-0.163522X0.161301X-0.029696X-0.012672X0.163522X0*%
%ADD50RoundRect,0.100000X-0.154539X-0.054933X0.092736X-0.135278X0.154539X0.054933X-0.092736X0.135278X0*%
%ADD51RoundRect,0.100000X-0.130000X-0.100000X0.130000X-0.100000X0.130000X0.100000X-0.130000X0.100000X0*%
%ADD52RoundRect,0.100000X-0.100000X0.130000X-0.100000X-0.130000X0.100000X-0.130000X0.100000X0.130000X0*%
%ADD53RoundRect,0.100000X0.113041X-0.118835X0.085863X0.139741X-0.113041X0.118835X-0.085863X-0.139741X0*%
%ADD54RoundRect,0.100000X0.139741X0.085863X-0.118835X0.113041X-0.139741X-0.085863X0.118835X-0.113041X0*%
%ADD55RoundRect,0.100000X0.154539X0.054933X-0.092736X0.135278X-0.154539X-0.054933X0.092736X-0.135278X0*%
%ADD56RoundRect,0.100000X0.144230X-0.078087X0.038479X0.159435X-0.144230X0.078087X-0.038479X-0.159435X0*%
%ADD57RoundRect,0.100000X-0.163522X0.012672X0.029696X-0.161301X0.163522X-0.012672X-0.029696X0.161301X0*%
%ADD58RoundRect,0.100000X0.004490X-0.163951X0.157314X0.046394X-0.004490X0.163951X-0.157314X-0.046394X0*%
%ADD59RoundRect,0.100000X0.151603X-0.062583X0.021603X0.162583X-0.151603X0.062583X-0.021603X-0.162583X0*%
%ADD60RoundRect,0.100000X-0.135278X0.092736X-0.054933X-0.154539X0.135278X-0.092736X0.054933X0.154539X0*%
%ADD61RoundRect,0.100000X-0.106368X-0.124843X0.147950X-0.070786X0.106368X0.124843X-0.147950X0.070786X0*%
%ADD62RoundRect,0.100000X0.157314X-0.046394X0.004490X0.163951X-0.157314X0.046394X-0.004490X-0.163951X0*%
%ADD63RoundRect,0.102000X0.250000X0.500000X-0.250000X0.500000X-0.250000X-0.500000X0.250000X-0.500000X0*%
%ADD64RoundRect,0.100000X-0.029696X-0.161301X0.163522X0.012672X0.029696X0.161301X-0.163522X-0.012672X0*%
%ADD65RoundRect,0.100000X-0.162583X-0.021603X0.062583X-0.151603X0.162583X0.021603X-0.062583X0.151603X0*%
%ADD66RoundRect,0.100000X0.078087X0.144230X-0.159435X0.038479X-0.078087X-0.144230X0.159435X-0.038479X0*%
%ADD67RoundRect,0.100000X-0.159435X-0.038479X0.078087X-0.144230X0.159435X0.038479X-0.078087X0.144230X0*%
%ADD68RoundRect,0.100000X0.163522X-0.012672X-0.029696X0.161301X-0.163522X0.012672X0.029696X-0.161301X0*%
%ADD69RoundRect,0.100000X-0.092736X-0.135278X0.154539X-0.054933X0.092736X0.135278X-0.154539X0.054933X0*%
%ADD70RoundRect,0.100000X0.070786X-0.147950X0.124843X0.106368X-0.070786X0.147950X-0.124843X-0.106368X0*%
%ADD71RoundRect,0.100000X0.118835X0.113041X-0.139741X0.085863X-0.118835X-0.113041X0.139741X-0.085863X0*%
%ADD72RoundRect,0.100000X-0.113041X0.118835X-0.085863X-0.139741X0.113041X-0.118835X0.085863X0.139741X0*%
%ADD73RoundRect,0.100000X0.046394X0.157314X-0.163951X0.004490X-0.046394X-0.157314X0.163951X-0.004490X0*%
%ADD74RoundRect,0.100000X-0.144230X0.078087X-0.038479X-0.159435X0.144230X-0.078087X0.038479X0.159435X0*%
%ADD75RoundRect,0.100000X-0.012672X-0.163522X0.161301X0.029696X0.012672X0.163522X-0.161301X-0.029696X0*%
%ADD76RoundRect,0.100000X-0.139741X-0.085863X0.118835X-0.113041X0.139741X0.085863X-0.118835X0.113041X0*%
%ADD77RoundRect,0.100000X0.054933X-0.154539X0.135278X0.092736X-0.054933X0.154539X-0.135278X-0.092736X0*%
%ADD78RoundRect,0.100000X0.147950X0.070786X-0.106368X0.124843X-0.147950X-0.070786X0.106368X-0.124843X0*%
%ADD79FreePoly0,270.000000*%
%ADD80RoundRect,0.062500X-0.062500X0.375000X-0.062500X-0.375000X0.062500X-0.375000X0.062500X0.375000X0*%
%ADD81FreePoly1,270.000000*%
%ADD82FreePoly2,270.000000*%
%ADD83RoundRect,0.062500X-0.375000X0.062500X-0.375000X-0.062500X0.375000X-0.062500X0.375000X0.062500X0*%
%ADD84FreePoly3,270.000000*%
%ADD85FreePoly4,270.000000*%
%ADD86FreePoly5,270.000000*%
%ADD87FreePoly6,270.000000*%
%ADD88FreePoly7,270.000000*%
%ADD89RoundRect,0.100000X-0.054933X0.154539X-0.135278X-0.092736X0.054933X-0.154539X0.135278X0.092736X0*%
%ADD90RoundRect,0.100000X0.163951X0.004490X-0.046394X0.157314X-0.163951X-0.004490X0.046394X-0.157314X0*%
G04 APERTURE END LIST*
D10*
%TO.C,D11*%
X109978105Y-91060548D02*
G75*
G02*
X109878105Y-91060548I-50000J0D01*
G01*
X109878105Y-91060548D02*
G75*
G02*
X109978105Y-91060548I50000J0D01*
G01*
%TO.C,D72*%
X97272196Y-86931793D02*
G75*
G02*
X97172196Y-86931793I-50000J0D01*
G01*
X97172196Y-86931793D02*
G75*
G02*
X97272196Y-86931793I50000J0D01*
G01*
%TO.C,D39*%
X98653106Y-113287289D02*
G75*
G02*
X98553106Y-113287289I-50000J0D01*
G01*
X98553106Y-113287289D02*
G75*
G02*
X98653106Y-113287289I50000J0D01*
G01*
%TO.C,D54*%
X86762711Y-101396894D02*
G75*
G02*
X86662711Y-101396894I-50000J0D01*
G01*
X86662711Y-101396894D02*
G75*
G02*
X86762711Y-101396894I50000J0D01*
G01*
%TO.C,D6*%
X105483794Y-87795351D02*
G75*
G02*
X105383794Y-87795351I-50000J0D01*
G01*
X105383794Y-87795351D02*
G75*
G02*
X105483794Y-87795351I50000J0D01*
G01*
%TO.C,D66*%
X92197506Y-89191245D02*
G75*
G02*
X92097504Y-89191245I-50001J0D01*
G01*
X92097504Y-89191245D02*
G75*
G02*
X92197506Y-89191245I50001J0D01*
G01*
D11*
%TO.C,SW2*%
X96084800Y-94750000D02*
G75*
G02*
X94285000Y-94750000I-899900J0D01*
G01*
X94285000Y-94750000D02*
G75*
G02*
X96084800Y-94750000I899900J0D01*
G01*
D10*
%TO.C,D3*%
X101446895Y-86712711D02*
G75*
G02*
X101346895Y-86712711I-50000J0D01*
G01*
X101346895Y-86712711D02*
G75*
G02*
X101446895Y-86712711I50000J0D01*
G01*
%TO.C,D63*%
X89241245Y-92147505D02*
G75*
G02*
X89141245Y-92147505I-50000J0D01*
G01*
X89141245Y-92147505D02*
G75*
G02*
X89241245Y-92147505I50000J0D01*
G01*
%TO.C,D29*%
X108989452Y-109928105D02*
G75*
G02*
X108889452Y-109928105I-50000J0D01*
G01*
X108889452Y-109928105D02*
G75*
G02*
X108989452Y-109928105I50000J0D01*
G01*
%TO.C,D58*%
X86981793Y-97222196D02*
G75*
G02*
X86881793Y-97222196I-50000J0D01*
G01*
X86881793Y-97222196D02*
G75*
G02*
X86981793Y-97222196I50000J0D01*
G01*
%TO.C,D67*%
X94245000Y-89945418D02*
G75*
G02*
X94145000Y-89945418I-50000J0D01*
G01*
X94145000Y-89945418D02*
G75*
G02*
X94245000Y-89945418I50000J0D01*
G01*
%TO.C,D38*%
X100050000Y-113360000D02*
G75*
G02*
X99950000Y-113360000I-50000J0D01*
G01*
X99950000Y-113360000D02*
G75*
G02*
X100050000Y-113360000I50000J0D01*
G01*
D12*
%TO.C,U1*%
X93890000Y-100390000D02*
X94065000Y-100390000D01*
X93890000Y-101065000D02*
X93890000Y-100390000D01*
X93890000Y-102935000D02*
X93890000Y-103610000D01*
X93890000Y-103610000D02*
X94065000Y-103610000D01*
X96610000Y-101065000D02*
X96610000Y-100690000D01*
X96610000Y-102935000D02*
X96610000Y-103610000D01*
X96610000Y-103610000D02*
X96435000Y-103610000D01*
X96800000Y-100530000D02*
X96610000Y-100390000D01*
X96800000Y-100250000D01*
X96800000Y-100530000D01*
G36*
X96800000Y-100530000D02*
G01*
X96610000Y-100390000D01*
X96800000Y-100250000D01*
X96800000Y-100530000D01*
G37*
D10*
%TO.C,D42*%
X94616206Y-112204649D02*
G75*
G02*
X94516206Y-112204649I-50000J0D01*
G01*
X94516206Y-112204649D02*
G75*
G02*
X94616206Y-112204649I50000J0D01*
G01*
%TO.C,D8*%
X106730000Y-88430218D02*
G75*
G02*
X106630000Y-88430218I-50000J0D01*
G01*
X106630000Y-88430218D02*
G75*
G02*
X106730000Y-88430218I50000J0D01*
G01*
%TO.C,D43*%
X94245000Y-110054582D02*
G75*
G02*
X94145000Y-110054582I-50000J0D01*
G01*
X94145000Y-110054582D02*
G75*
G02*
X94245000Y-110054582I50000J0D01*
G01*
%TO.C,D10*%
X108989452Y-90071895D02*
G75*
G02*
X108889452Y-90071895I-50000J0D01*
G01*
X108889452Y-90071895D02*
G75*
G02*
X108989452Y-90071895I50000J0D01*
G01*
%TO.C,D16*%
X112755909Y-95871245D02*
G75*
G02*
X112655909Y-95871245I-50000J0D01*
G01*
X112655909Y-95871245D02*
G75*
G02*
X112755909Y-95871245I50000J0D01*
G01*
%TO.C,D26*%
X111619782Y-106680000D02*
G75*
G02*
X111519782Y-106680000I-50000J0D01*
G01*
X111519782Y-106680000D02*
G75*
G02*
X111619782Y-106680000I50000J0D01*
G01*
%TO.C,D51*%
X87845351Y-105433794D02*
G75*
G02*
X87745351Y-105433794I-50000J0D01*
G01*
X87745351Y-105433794D02*
G75*
G02*
X87845351Y-105433794I50000J0D01*
G01*
%TO.C,D13*%
X110104582Y-94195000D02*
G75*
G02*
X110004582Y-94195000I-50000J0D01*
G01*
X110004582Y-94195000D02*
G75*
G02*
X110104582Y-94195000I50000J0D01*
G01*
%TO.C,D7*%
X105855000Y-89945418D02*
G75*
G02*
X105755000Y-89945418I-50000J0D01*
G01*
X105755000Y-89945418D02*
G75*
G02*
X105855000Y-89945418I50000J0D01*
G01*
%TO.C,D35*%
X102827804Y-113068207D02*
G75*
G02*
X102727804Y-113068207I-50000J0D01*
G01*
X102727804Y-113068207D02*
G75*
G02*
X102827804Y-113068207I50000J0D01*
G01*
%TO.C,D48*%
X89241246Y-107852495D02*
G75*
G02*
X89141244Y-107852495I-50001J0D01*
G01*
X89141244Y-107852495D02*
G75*
G02*
X89241246Y-107852495I50001J0D01*
G01*
%TO.C,D37*%
X100050000Y-111610000D02*
G75*
G02*
X99950000Y-111610000I-50000J0D01*
G01*
X99950000Y-111610000D02*
G75*
G02*
X100050000Y-111610000I50000J0D01*
G01*
D12*
%TO.C,C5*%
X99107836Y-103640000D02*
X98892164Y-103640000D01*
X99107836Y-104360000D02*
X98892164Y-104360000D01*
D10*
%TO.C,D50*%
X88480218Y-106680000D02*
G75*
G02*
X88380218Y-106680000I-50000J0D01*
G01*
X88380218Y-106680000D02*
G75*
G02*
X88480218Y-106680000I50000J0D01*
G01*
%TO.C,D49*%
X89995418Y-105805000D02*
G75*
G02*
X89895418Y-105805000I-50000J0D01*
G01*
X89895418Y-105805000D02*
G75*
G02*
X89995418Y-105805000I50000J0D01*
G01*
%TO.C,D24*%
X112254649Y-105433794D02*
G75*
G02*
X112154649Y-105433794I-50000J0D01*
G01*
X112154649Y-105433794D02*
G75*
G02*
X112254649Y-105433794I50000J0D01*
G01*
%TO.C,D17*%
X113118207Y-97222196D02*
G75*
G02*
X113018207Y-97222196I-50000J0D01*
G01*
X113018207Y-97222196D02*
G75*
G02*
X113118207Y-97222196I50000J0D01*
G01*
%TO.C,D34*%
X104178755Y-112705909D02*
G75*
G02*
X104078755Y-112705909I-50000J0D01*
G01*
X104078755Y-112705909D02*
G75*
G02*
X104178755Y-112705909I50000J0D01*
G01*
%TO.C,D9*%
X107902495Y-89191245D02*
G75*
G02*
X107802495Y-89191245I-50000J0D01*
G01*
X107802495Y-89191245D02*
G75*
G02*
X107902495Y-89191245I50000J0D01*
G01*
%TO.C,D4*%
X102827804Y-86931793D02*
G75*
G02*
X102727804Y-86931793I-50000J0D01*
G01*
X102727804Y-86931793D02*
G75*
G02*
X102827804Y-86931793I50000J0D01*
G01*
%TO.C,D65*%
X91110548Y-90071896D02*
G75*
G02*
X91010546Y-90071896I-50001J0D01*
G01*
X91010546Y-90071896D02*
G75*
G02*
X91110548Y-90071896I50001J0D01*
G01*
%TO.C,D59*%
X87344092Y-95871245D02*
G75*
G02*
X87244090Y-95871245I-50001J0D01*
G01*
X87244090Y-95871245D02*
G75*
G02*
X87344092Y-95871245I50001J0D01*
G01*
%TO.C,D55*%
X88440000Y-100000000D02*
G75*
G02*
X88340000Y-100000000I-50000J0D01*
G01*
X88340000Y-100000000D02*
G75*
G02*
X88440000Y-100000000I50000J0D01*
G01*
D11*
%TO.C,SW1*%
X105465000Y-105250000D02*
G75*
G02*
X103665200Y-105250000I-899900J0D01*
G01*
X103665200Y-105250000D02*
G75*
G02*
X105465000Y-105250000I899900J0D01*
G01*
D10*
%TO.C,D36*%
X101446894Y-113287289D02*
G75*
G02*
X101346894Y-113287289I-50000J0D01*
G01*
X101346894Y-113287289D02*
G75*
G02*
X101446894Y-113287289I50000J0D01*
G01*
%TO.C,D21*%
X113337289Y-101396894D02*
G75*
G02*
X113237289Y-101396894I-50000J0D01*
G01*
X113237289Y-101396894D02*
G75*
G02*
X113337289Y-101396894I50000J0D01*
G01*
%TO.C,D23*%
X112755909Y-104128755D02*
G75*
G02*
X112655909Y-104128755I-50000J0D01*
G01*
X112655909Y-104128755D02*
G75*
G02*
X112755909Y-104128755I50000J0D01*
G01*
%TO.C,D68*%
X93370000Y-88430218D02*
G75*
G02*
X93270000Y-88430218I-50000J0D01*
G01*
X93270000Y-88430218D02*
G75*
G02*
X93370000Y-88430218I50000J0D01*
G01*
%TO.C,D33*%
X105483794Y-112204649D02*
G75*
G02*
X105383794Y-112204649I-50000J0D01*
G01*
X105383794Y-112204649D02*
G75*
G02*
X105483794Y-112204649I50000J0D01*
G01*
%TO.C,D64*%
X90121894Y-91060548D02*
G75*
G02*
X90021896Y-91060548I-49999J0D01*
G01*
X90021896Y-91060548D02*
G75*
G02*
X90121894Y-91060548I49999J0D01*
G01*
%TO.C,D45*%
X92197505Y-110808755D02*
G75*
G02*
X92097505Y-110808755I-50000J0D01*
G01*
X92097505Y-110808755D02*
G75*
G02*
X92197505Y-110808755I50000J0D01*
G01*
%TO.C,D31*%
X105855000Y-110054582D02*
G75*
G02*
X105755000Y-110054582I-50000J0D01*
G01*
X105755000Y-110054582D02*
G75*
G02*
X105855000Y-110054582I50000J0D01*
G01*
%TO.C,D32*%
X106730000Y-111569782D02*
G75*
G02*
X106630000Y-111569782I-50000J0D01*
G01*
X106630000Y-111569782D02*
G75*
G02*
X106730000Y-111569782I50000J0D01*
G01*
%TO.C,D70*%
X95921245Y-87294091D02*
G75*
G02*
X95821245Y-87294091I-50000J0D01*
G01*
X95821245Y-87294091D02*
G75*
G02*
X95921245Y-87294091I50000J0D01*
G01*
%TO.C,D53*%
X86981791Y-102777804D02*
G75*
G02*
X86881795Y-102777804I-49998J0D01*
G01*
X86881795Y-102777804D02*
G75*
G02*
X86981791Y-102777804I49998J0D01*
G01*
%TO.C,D30*%
X107902495Y-110808755D02*
G75*
G02*
X107802495Y-110808755I-50000J0D01*
G01*
X107802495Y-110808755D02*
G75*
G02*
X107902495Y-110808755I50000J0D01*
G01*
%TO.C,D47*%
X90121896Y-108939452D02*
G75*
G02*
X90021894Y-108939452I-50001J0D01*
G01*
X90021894Y-108939452D02*
G75*
G02*
X90121896Y-108939452I50001J0D01*
G01*
%TO.C,D62*%
X88480218Y-93320000D02*
G75*
G02*
X88380218Y-93320000I-50000J0D01*
G01*
X88380218Y-93320000D02*
G75*
G02*
X88480218Y-93320000I50000J0D01*
G01*
%TO.C,D15*%
X112254649Y-94566206D02*
G75*
G02*
X112154649Y-94566206I-50000J0D01*
G01*
X112154649Y-94566206D02*
G75*
G02*
X112254649Y-94566206I50000J0D01*
G01*
%TO.C,D60*%
X87845351Y-94566206D02*
G75*
G02*
X87745351Y-94566206I-50000J0D01*
G01*
X87745351Y-94566206D02*
G75*
G02*
X87845351Y-94566206I50000J0D01*
G01*
%TO.C,D28*%
X109978105Y-108939452D02*
G75*
G02*
X109878105Y-108939452I-50000J0D01*
G01*
X109878105Y-108939452D02*
G75*
G02*
X109978105Y-108939452I50000J0D01*
G01*
%TO.C,D52*%
X87344091Y-104128755D02*
G75*
G02*
X87244091Y-104128755I-50000J0D01*
G01*
X87244091Y-104128755D02*
G75*
G02*
X87344091Y-104128755I50000J0D01*
G01*
%TO.C,D40*%
X97272196Y-113068207D02*
G75*
G02*
X97172196Y-113068207I-50000J0D01*
G01*
X97172196Y-113068207D02*
G75*
G02*
X97272196Y-113068207I50000J0D01*
G01*
%TO.C,D61*%
X89995418Y-94195000D02*
G75*
G02*
X89895418Y-94195000I-50000J0D01*
G01*
X89895418Y-94195000D02*
G75*
G02*
X89995418Y-94195000I50000J0D01*
G01*
%TO.C,D25*%
X110104582Y-105805000D02*
G75*
G02*
X110004582Y-105805000I-50000J0D01*
G01*
X110004582Y-105805000D02*
G75*
G02*
X110104582Y-105805000I50000J0D01*
G01*
%TO.C,D18*%
X113337289Y-98603106D02*
G75*
G02*
X113237289Y-98603106I-50000J0D01*
G01*
X113237289Y-98603106D02*
G75*
G02*
X113337289Y-98603106I50000J0D01*
G01*
%TO.C,D71*%
X98653106Y-86712711D02*
G75*
G02*
X98553106Y-86712711I-50000J0D01*
G01*
X98553106Y-86712711D02*
G75*
G02*
X98653106Y-86712711I50000J0D01*
G01*
%TO.C,D44*%
X93370000Y-111569782D02*
G75*
G02*
X93270000Y-111569782I-50000J0D01*
G01*
X93270000Y-111569782D02*
G75*
G02*
X93370000Y-111569782I50000J0D01*
G01*
%TO.C,D1*%
X100050000Y-88390000D02*
G75*
G02*
X99950000Y-88390000I-50000J0D01*
G01*
X99950000Y-88390000D02*
G75*
G02*
X100050000Y-88390000I50000J0D01*
G01*
%TO.C,D12*%
X110858755Y-92147505D02*
G75*
G02*
X110758755Y-92147505I-50000J0D01*
G01*
X110758755Y-92147505D02*
G75*
G02*
X110858755Y-92147505I50000J0D01*
G01*
%TO.C,D69*%
X94616206Y-87795351D02*
G75*
G02*
X94516206Y-87795351I-50000J0D01*
G01*
X94516206Y-87795351D02*
G75*
G02*
X94616206Y-87795351I50000J0D01*
G01*
%TO.C,D2*%
X100050000Y-86640000D02*
G75*
G02*
X99950000Y-86640000I-50000J0D01*
G01*
X99950000Y-86640000D02*
G75*
G02*
X100050000Y-86640000I50000J0D01*
G01*
%TO.C,D20*%
X113410000Y-100000000D02*
G75*
G02*
X113310000Y-100000000I-50000J0D01*
G01*
X113310000Y-100000000D02*
G75*
G02*
X113410000Y-100000000I50000J0D01*
G01*
%TO.C,D46*%
X91110549Y-109928105D02*
G75*
G02*
X91010547Y-109928105I-50001J0D01*
G01*
X91010547Y-109928105D02*
G75*
G02*
X91110549Y-109928105I50001J0D01*
G01*
%TO.C,D57*%
X86762711Y-98603106D02*
G75*
G02*
X86662711Y-98603106I-50000J0D01*
G01*
X86662711Y-98603106D02*
G75*
G02*
X86762711Y-98603106I50000J0D01*
G01*
%TO.C,D41*%
X95921245Y-112705909D02*
G75*
G02*
X95821245Y-112705909I-50000J0D01*
G01*
X95821245Y-112705909D02*
G75*
G02*
X95921245Y-112705909I50000J0D01*
G01*
%TO.C,D22*%
X113118207Y-102777804D02*
G75*
G02*
X113018207Y-102777804I-50000J0D01*
G01*
X113018207Y-102777804D02*
G75*
G02*
X113118207Y-102777804I50000J0D01*
G01*
%TO.C,D14*%
X111619782Y-93320000D02*
G75*
G02*
X111519782Y-93320000I-50000J0D01*
G01*
X111519782Y-93320000D02*
G75*
G02*
X111619782Y-93320000I50000J0D01*
G01*
D13*
%TO.C,G\u002A\u002A\u002A*%
G36*
X93503259Y-106933888D02*
G01*
X93511942Y-106934514D01*
X93518969Y-106935948D01*
X93526011Y-106938507D01*
X93533101Y-106941732D01*
X93552381Y-106953510D01*
X93568211Y-106968764D01*
X93580278Y-106987078D01*
X93588273Y-107008038D01*
X93590475Y-107018323D01*
X93591474Y-107039061D01*
X93587891Y-107059469D01*
X93580128Y-107078809D01*
X93568589Y-107096344D01*
X93553675Y-107111336D01*
X93535787Y-107123049D01*
X93532500Y-107124652D01*
X93524285Y-107127984D01*
X93515987Y-107130070D01*
X93505865Y-107131238D01*
X93495000Y-107131740D01*
X93479064Y-107131642D01*
X93466494Y-107130377D01*
X93460715Y-107129011D01*
X93440682Y-107119954D01*
X93423384Y-107106968D01*
X93409258Y-107090562D01*
X93398742Y-107071251D01*
X93392277Y-107049544D01*
X93392184Y-107049048D01*
X93390741Y-107027999D01*
X93393943Y-107007442D01*
X93401439Y-106988037D01*
X93412875Y-106970443D01*
X93427901Y-106955322D01*
X93446164Y-106943332D01*
X93449398Y-106941732D01*
X93457729Y-106937991D01*
X93464652Y-106935640D01*
X93471839Y-106934363D01*
X93480959Y-106933839D01*
X93491250Y-106933750D01*
X93503259Y-106933888D01*
G37*
G36*
X93063467Y-106361283D02*
G01*
X93076507Y-106361433D01*
X93086192Y-106361776D01*
X93093346Y-106362389D01*
X93098791Y-106363345D01*
X93103350Y-106364722D01*
X93107845Y-106366595D01*
X93108750Y-106367009D01*
X93122907Y-106375220D01*
X93133765Y-106385762D01*
X93142108Y-106398750D01*
X93148750Y-106411250D01*
X93148750Y-106747500D01*
X93148750Y-107083750D01*
X93143244Y-107094041D01*
X93134271Y-107108135D01*
X93124074Y-107118476D01*
X93111950Y-107126055D01*
X93107492Y-107128197D01*
X93103372Y-107129803D01*
X93098802Y-107130950D01*
X93092994Y-107131715D01*
X93085160Y-107132175D01*
X93074511Y-107132407D01*
X93060261Y-107132490D01*
X93046250Y-107132500D01*
X93028671Y-107132480D01*
X93015305Y-107132371D01*
X93005362Y-107132095D01*
X92998054Y-107131574D01*
X92992593Y-107130730D01*
X92988191Y-107129485D01*
X92984059Y-107127763D01*
X92980496Y-107126029D01*
X92971284Y-107120345D01*
X92962455Y-107113164D01*
X92958891Y-107109487D01*
X92956583Y-107106892D01*
X92954502Y-107104598D01*
X92952636Y-107102350D01*
X92950973Y-107099888D01*
X92949502Y-107096956D01*
X92948211Y-107093295D01*
X92947088Y-107088648D01*
X92946121Y-107082757D01*
X92945300Y-107075364D01*
X92944611Y-107066212D01*
X92944045Y-107055042D01*
X92943588Y-107041597D01*
X92943230Y-107025620D01*
X92942958Y-107006852D01*
X92942761Y-106985036D01*
X92942627Y-106959913D01*
X92942545Y-106931227D01*
X92942502Y-106898719D01*
X92942488Y-106862132D01*
X92942490Y-106821208D01*
X92942498Y-106775688D01*
X92942500Y-106747500D01*
X92942494Y-106699199D01*
X92942485Y-106655641D01*
X92942486Y-106616567D01*
X92942508Y-106581720D01*
X92942565Y-106550841D01*
X92942669Y-106523674D01*
X92942832Y-106499959D01*
X92943066Y-106479440D01*
X92943386Y-106461859D01*
X92943802Y-106446957D01*
X92944327Y-106434477D01*
X92944974Y-106424162D01*
X92945755Y-106415753D01*
X92946683Y-106408992D01*
X92947770Y-106403622D01*
X92949029Y-106399385D01*
X92950472Y-106396023D01*
X92952112Y-106393279D01*
X92953961Y-106390894D01*
X92956032Y-106388611D01*
X92958337Y-106386172D01*
X92960093Y-106384237D01*
X92969314Y-106375767D01*
X92980142Y-106368652D01*
X92983030Y-106367223D01*
X92987815Y-106365178D01*
X92992389Y-106363661D01*
X92997582Y-106362594D01*
X93004226Y-106361898D01*
X93013153Y-106361494D01*
X93025194Y-106361305D01*
X93041180Y-106361251D01*
X93046250Y-106361250D01*
X93063467Y-106361283D01*
G37*
G36*
X94137702Y-106361252D02*
G01*
X94168256Y-106361266D01*
X94194515Y-106361299D01*
X94216831Y-106361363D01*
X94235557Y-106361465D01*
X94251045Y-106361615D01*
X94263646Y-106361822D01*
X94273714Y-106362096D01*
X94281601Y-106362445D01*
X94287660Y-106362879D01*
X94292242Y-106363407D01*
X94295699Y-106364038D01*
X94298386Y-106364782D01*
X94300652Y-106365647D01*
X94302500Y-106366479D01*
X94317309Y-106375130D01*
X94328450Y-106386012D01*
X94336747Y-106399489D01*
X94343750Y-106413750D01*
X94343750Y-106747500D01*
X94343750Y-107081250D01*
X94338464Y-107092674D01*
X94330218Y-107105778D01*
X94318800Y-107117629D01*
X94305984Y-107126403D01*
X94305448Y-107126673D01*
X94303514Y-107127522D01*
X94301128Y-107128262D01*
X94297945Y-107128902D01*
X94293621Y-107129451D01*
X94287813Y-107129917D01*
X94280177Y-107130310D01*
X94270368Y-107130639D01*
X94258043Y-107130913D01*
X94242857Y-107131140D01*
X94224467Y-107131329D01*
X94202529Y-107131490D01*
X94176698Y-107131631D01*
X94146631Y-107131761D01*
X94111984Y-107131890D01*
X94103705Y-107131919D01*
X93911161Y-107132589D01*
X93898086Y-107126074D01*
X93888862Y-107120392D01*
X93880025Y-107113227D01*
X93876391Y-107109487D01*
X93874083Y-107106892D01*
X93872002Y-107104598D01*
X93870136Y-107102350D01*
X93868473Y-107099888D01*
X93867002Y-107096956D01*
X93865711Y-107093295D01*
X93864588Y-107088648D01*
X93863621Y-107082757D01*
X93862800Y-107075364D01*
X93862111Y-107066212D01*
X93861545Y-107055042D01*
X93861088Y-107041597D01*
X93860730Y-107025620D01*
X93860458Y-107006852D01*
X93860261Y-106985036D01*
X93860127Y-106959913D01*
X93860045Y-106931227D01*
X93860037Y-106925000D01*
X94067500Y-106925000D01*
X94102500Y-106925000D01*
X94137500Y-106925000D01*
X94137500Y-106746250D01*
X94137500Y-106567500D01*
X94102500Y-106567500D01*
X94067500Y-106567500D01*
X94067500Y-106746250D01*
X94067500Y-106925000D01*
X93860037Y-106925000D01*
X93860002Y-106898719D01*
X93859988Y-106862132D01*
X93859990Y-106821208D01*
X93859998Y-106775688D01*
X93860000Y-106747500D01*
X93860000Y-106746250D01*
X93859994Y-106699199D01*
X93859985Y-106655641D01*
X93859986Y-106616567D01*
X93860008Y-106581720D01*
X93860065Y-106550841D01*
X93860169Y-106523674D01*
X93860332Y-106499959D01*
X93860566Y-106479440D01*
X93860886Y-106461859D01*
X93861302Y-106446957D01*
X93861827Y-106434477D01*
X93862474Y-106424162D01*
X93863255Y-106415753D01*
X93864183Y-106408992D01*
X93865270Y-106403622D01*
X93866529Y-106399385D01*
X93867972Y-106396023D01*
X93869612Y-106393279D01*
X93871461Y-106390894D01*
X93873532Y-106388611D01*
X93875837Y-106386172D01*
X93877593Y-106384237D01*
X93886814Y-106375767D01*
X93897642Y-106368652D01*
X93900530Y-106367223D01*
X93913750Y-106361250D01*
X94102500Y-106361250D01*
X94137702Y-106361252D01*
G37*
G36*
X96170202Y-106361252D02*
G01*
X96200756Y-106361266D01*
X96227015Y-106361299D01*
X96249331Y-106361363D01*
X96268057Y-106361465D01*
X96283545Y-106361615D01*
X96296146Y-106361822D01*
X96306214Y-106362096D01*
X96314101Y-106362445D01*
X96320160Y-106362879D01*
X96324742Y-106363407D01*
X96328199Y-106364038D01*
X96330886Y-106364782D01*
X96333152Y-106365647D01*
X96335000Y-106366479D01*
X96349809Y-106375130D01*
X96360950Y-106386012D01*
X96369247Y-106399489D01*
X96376250Y-106413750D01*
X96376250Y-106747500D01*
X96376250Y-107081250D01*
X96370964Y-107092674D01*
X96362718Y-107105778D01*
X96351300Y-107117629D01*
X96338484Y-107126403D01*
X96337948Y-107126673D01*
X96336014Y-107127522D01*
X96333628Y-107128262D01*
X96330445Y-107128902D01*
X96326121Y-107129451D01*
X96320313Y-107129917D01*
X96312677Y-107130310D01*
X96302868Y-107130639D01*
X96290543Y-107130913D01*
X96275357Y-107131140D01*
X96256967Y-107131329D01*
X96235029Y-107131490D01*
X96209198Y-107131631D01*
X96179131Y-107131761D01*
X96144484Y-107131890D01*
X96136205Y-107131919D01*
X95943661Y-107132589D01*
X95930586Y-107126074D01*
X95921362Y-107120392D01*
X95912525Y-107113227D01*
X95908891Y-107109487D01*
X95906583Y-107106892D01*
X95904502Y-107104598D01*
X95902636Y-107102350D01*
X95900973Y-107099888D01*
X95899502Y-107096956D01*
X95898211Y-107093295D01*
X95897088Y-107088648D01*
X95896121Y-107082757D01*
X95895300Y-107075364D01*
X95894611Y-107066212D01*
X95894045Y-107055042D01*
X95893588Y-107041597D01*
X95893230Y-107025620D01*
X95892958Y-107006852D01*
X95892761Y-106985036D01*
X95892627Y-106959913D01*
X95892545Y-106931227D01*
X95892537Y-106925000D01*
X96100000Y-106925000D01*
X96135000Y-106925000D01*
X96170000Y-106925000D01*
X96170000Y-106746250D01*
X96170000Y-106567500D01*
X96135000Y-106567500D01*
X96100000Y-106567500D01*
X96100000Y-106746250D01*
X96100000Y-106925000D01*
X95892537Y-106925000D01*
X95892502Y-106898719D01*
X95892488Y-106862132D01*
X95892490Y-106821208D01*
X95892498Y-106775688D01*
X95892500Y-106747500D01*
X95892500Y-106746250D01*
X95892494Y-106699199D01*
X95892485Y-106655641D01*
X95892486Y-106616567D01*
X95892508Y-106581720D01*
X95892565Y-106550841D01*
X95892669Y-106523674D01*
X95892832Y-106499959D01*
X95893066Y-106479440D01*
X95893386Y-106461859D01*
X95893802Y-106446957D01*
X95894327Y-106434477D01*
X95894974Y-106424162D01*
X95895755Y-106415753D01*
X95896683Y-106408992D01*
X95897770Y-106403622D01*
X95899029Y-106399385D01*
X95900472Y-106396023D01*
X95902112Y-106393279D01*
X95903961Y-106390894D01*
X95906032Y-106388611D01*
X95908337Y-106386172D01*
X95910093Y-106384237D01*
X95919314Y-106375767D01*
X95930142Y-106368652D01*
X95933030Y-106367223D01*
X95946250Y-106361250D01*
X96135000Y-106361250D01*
X96170202Y-106361252D01*
G37*
G36*
X94657411Y-106361279D02*
G01*
X94670638Y-106361416D01*
X94680498Y-106361738D01*
X94687805Y-106362320D01*
X94693377Y-106363237D01*
X94698028Y-106364565D01*
X94702574Y-106366379D01*
X94704469Y-106367223D01*
X94718253Y-106375791D01*
X94730029Y-106387598D01*
X94738595Y-106401303D01*
X94741261Y-106408318D01*
X94741882Y-106410952D01*
X94742431Y-106414618D01*
X94742914Y-106419609D01*
X94743334Y-106426215D01*
X94743696Y-106434726D01*
X94744003Y-106445433D01*
X94744260Y-106458626D01*
X94744471Y-106474596D01*
X94744640Y-106493634D01*
X94744771Y-106516029D01*
X94744868Y-106542074D01*
X94744935Y-106572057D01*
X94744976Y-106606270D01*
X94744996Y-106645003D01*
X94745000Y-106672791D01*
X94745000Y-106924676D01*
X94856875Y-106925463D01*
X94883421Y-106925653D01*
X94905444Y-106925834D01*
X94923423Y-106926032D01*
X94937834Y-106926272D01*
X94949154Y-106926580D01*
X94957863Y-106926983D01*
X94964435Y-106927505D01*
X94969351Y-106928173D01*
X94973085Y-106929013D01*
X94976117Y-106930050D01*
X94978923Y-106931311D01*
X94980652Y-106932163D01*
X94992702Y-106940069D01*
X95003791Y-106950791D01*
X95012630Y-106962864D01*
X95017763Y-106974242D01*
X95019239Y-106981681D01*
X95020288Y-106992600D01*
X95020937Y-107007454D01*
X95021212Y-107026699D01*
X95021225Y-107033750D01*
X95021068Y-107053232D01*
X95020482Y-107068527D01*
X95019267Y-107080441D01*
X95017221Y-107089783D01*
X95014143Y-107097360D01*
X95009830Y-107103979D01*
X95004082Y-107110447D01*
X95001413Y-107113098D01*
X94998138Y-107116373D01*
X94995276Y-107119228D01*
X94992481Y-107121695D01*
X94989407Y-107123803D01*
X94985707Y-107125580D01*
X94981034Y-107127057D01*
X94975043Y-107128263D01*
X94967387Y-107129228D01*
X94957719Y-107129981D01*
X94945694Y-107130551D01*
X94930964Y-107130969D01*
X94913183Y-107131264D01*
X94892005Y-107131465D01*
X94867084Y-107131603D01*
X94838073Y-107131705D01*
X94804625Y-107131803D01*
X94781250Y-107131875D01*
X94588750Y-107132500D01*
X94576110Y-107126590D01*
X94566757Y-107120947D01*
X94557656Y-107113483D01*
X94554371Y-107110048D01*
X94551996Y-107107379D01*
X94549853Y-107105030D01*
X94547932Y-107102745D01*
X94546221Y-107100265D01*
X94544706Y-107097332D01*
X94543377Y-107093688D01*
X94542220Y-107089075D01*
X94541225Y-107083236D01*
X94540380Y-107075912D01*
X94539671Y-107066845D01*
X94539088Y-107055778D01*
X94538617Y-107042452D01*
X94538248Y-107026610D01*
X94537968Y-107007993D01*
X94537766Y-106986343D01*
X94537628Y-106961403D01*
X94537544Y-106932915D01*
X94537500Y-106900620D01*
X94537486Y-106864261D01*
X94537489Y-106823579D01*
X94537497Y-106778317D01*
X94537500Y-106747500D01*
X94537494Y-106699199D01*
X94537485Y-106655641D01*
X94537485Y-106616566D01*
X94537508Y-106581719D01*
X94537565Y-106550840D01*
X94537668Y-106523672D01*
X94537831Y-106499957D01*
X94538066Y-106479437D01*
X94538386Y-106461855D01*
X94538802Y-106446952D01*
X94539329Y-106434471D01*
X94539977Y-106424154D01*
X94540759Y-106415743D01*
X94541689Y-106408981D01*
X94542778Y-106403609D01*
X94544039Y-106399369D01*
X94545485Y-106396005D01*
X94547128Y-106393257D01*
X94548981Y-106390869D01*
X94551055Y-106388582D01*
X94553365Y-106386139D01*
X94555136Y-106384187D01*
X94563004Y-106376667D01*
X94572176Y-106369857D01*
X94576824Y-106367174D01*
X94581090Y-106365171D01*
X94585233Y-106363679D01*
X94590049Y-106362622D01*
X94596335Y-106361926D01*
X94604887Y-106361515D01*
X94616504Y-106361316D01*
X94631982Y-106361253D01*
X94640000Y-106361250D01*
X94657411Y-106361279D01*
G37*
G36*
X95492695Y-106361252D02*
G01*
X95523242Y-106361264D01*
X95549495Y-106361297D01*
X95571806Y-106361359D01*
X95590528Y-106361460D01*
X95606013Y-106361608D01*
X95618614Y-106361814D01*
X95628684Y-106362087D01*
X95636575Y-106362435D01*
X95642640Y-106362869D01*
X95647232Y-106363398D01*
X95650703Y-106364031D01*
X95653405Y-106364777D01*
X95655693Y-106365646D01*
X95657723Y-106366556D01*
X95671948Y-106375543D01*
X95684365Y-106387938D01*
X95693386Y-106402155D01*
X95693443Y-106402276D01*
X95695272Y-106406608D01*
X95696628Y-106411107D01*
X95697580Y-106416585D01*
X95698198Y-106423851D01*
X95698552Y-106433716D01*
X95698713Y-106446990D01*
X95698750Y-106463750D01*
X95698716Y-106480968D01*
X95698565Y-106494010D01*
X95698222Y-106503698D01*
X95697609Y-106510854D01*
X95696652Y-106516301D01*
X95695275Y-106520863D01*
X95693402Y-106525362D01*
X95692996Y-106526250D01*
X95683034Y-106542535D01*
X95669835Y-106555034D01*
X95658750Y-106561531D01*
X95646250Y-106567451D01*
X95534375Y-106567475D01*
X95422500Y-106567500D01*
X95422500Y-106601250D01*
X95422500Y-106635000D01*
X95532054Y-106635000D01*
X95560073Y-106635013D01*
X95583569Y-106635090D01*
X95603017Y-106635285D01*
X95618895Y-106635653D01*
X95631678Y-106636250D01*
X95641844Y-106637130D01*
X95649868Y-106638348D01*
X95656227Y-106639960D01*
X95661398Y-106642020D01*
X95665857Y-106644583D01*
X95670080Y-106647705D01*
X95674545Y-106651440D01*
X95674556Y-106651450D01*
X95681391Y-106658712D01*
X95688147Y-106668123D01*
X95691722Y-106674439D01*
X95698750Y-106688750D01*
X95698750Y-106882500D01*
X95698745Y-106918298D01*
X95698725Y-106949445D01*
X95698683Y-106976290D01*
X95698610Y-106999182D01*
X95698498Y-107018470D01*
X95698339Y-107034503D01*
X95698125Y-107047629D01*
X95697848Y-107058198D01*
X95697501Y-107066558D01*
X95697074Y-107073058D01*
X95696561Y-107078049D01*
X95695953Y-107081877D01*
X95695241Y-107084893D01*
X95694419Y-107087445D01*
X95694021Y-107088508D01*
X95685683Y-107103769D01*
X95673768Y-107116787D01*
X95659462Y-107126279D01*
X95658750Y-107126617D01*
X95646250Y-107132451D01*
X95456115Y-107132475D01*
X95265981Y-107132500D01*
X95252996Y-107126029D01*
X95238767Y-107116501D01*
X95227319Y-107103922D01*
X95219652Y-107089440D01*
X95218693Y-107086530D01*
X95217092Y-107078207D01*
X95215909Y-107066174D01*
X95215143Y-107051540D01*
X95214790Y-107035413D01*
X95214851Y-107018902D01*
X95215322Y-107003115D01*
X95216202Y-106989163D01*
X95217489Y-106978153D01*
X95218885Y-106971986D01*
X95226457Y-106957162D01*
X95238059Y-106944213D01*
X95252807Y-106934104D01*
X95254439Y-106933277D01*
X95268750Y-106926250D01*
X95380625Y-106925483D01*
X95492500Y-106924717D01*
X95492500Y-106883608D01*
X95492500Y-106842500D01*
X95384203Y-106842500D01*
X95356930Y-106842472D01*
X95334193Y-106842380D01*
X95315531Y-106842210D01*
X95300482Y-106841947D01*
X95288582Y-106841576D01*
X95279370Y-106841084D01*
X95272382Y-106840456D01*
X95267156Y-106839677D01*
X95263318Y-106838761D01*
X95250799Y-106833049D01*
X95238368Y-106823967D01*
X95227676Y-106812893D01*
X95221770Y-106804070D01*
X95216250Y-106793750D01*
X95215563Y-106606456D01*
X95215426Y-106570014D01*
X95215319Y-106538221D01*
X95215269Y-106510727D01*
X95215301Y-106487181D01*
X95215444Y-106467233D01*
X95215724Y-106450532D01*
X95216168Y-106436727D01*
X95216802Y-106425467D01*
X95217653Y-106416403D01*
X95218749Y-106409184D01*
X95220115Y-106403458D01*
X95221779Y-106398876D01*
X95223768Y-106395086D01*
X95226107Y-106391738D01*
X95228825Y-106388482D01*
X95231948Y-106384967D01*
X95232540Y-106384297D01*
X95241845Y-106375744D01*
X95252735Y-106368602D01*
X95255530Y-106367223D01*
X95268750Y-106361250D01*
X95457500Y-106361250D01*
X95492695Y-106361252D01*
G37*
G36*
X96967563Y-106361288D02*
G01*
X96980919Y-106361449D01*
X96990861Y-106361798D01*
X96998181Y-106362402D01*
X97003673Y-106363327D01*
X97008128Y-106364639D01*
X97012340Y-106366405D01*
X97012500Y-106366479D01*
X97027309Y-106375130D01*
X97038450Y-106386012D01*
X97046747Y-106399489D01*
X97053750Y-106413750D01*
X97053750Y-106747500D01*
X97053750Y-107081250D01*
X97048464Y-107092674D01*
X97040218Y-107105778D01*
X97028800Y-107117629D01*
X97015984Y-107126403D01*
X97015448Y-107126673D01*
X97011646Y-107128256D01*
X97006945Y-107129464D01*
X97000605Y-107130364D01*
X96991887Y-107131019D01*
X96980052Y-107131493D01*
X96964362Y-107131850D01*
X96953864Y-107132019D01*
X96933715Y-107132210D01*
X96917806Y-107132028D01*
X96905380Y-107131332D01*
X96895683Y-107129983D01*
X96887959Y-107127841D01*
X96881453Y-107124764D01*
X96875410Y-107120614D01*
X96870561Y-107116567D01*
X96866105Y-107112322D01*
X96861815Y-107107380D01*
X96857442Y-107101266D01*
X96852735Y-107093507D01*
X96847442Y-107083627D01*
X96841313Y-107071152D01*
X96834097Y-107055607D01*
X96825542Y-107036517D01*
X96815399Y-107013407D01*
X96812367Y-107006442D01*
X96778750Y-106929134D01*
X96777500Y-107006442D01*
X96777134Y-107028210D01*
X96776788Y-107045581D01*
X96776412Y-107059156D01*
X96775961Y-107069538D01*
X96775385Y-107077329D01*
X96774638Y-107083131D01*
X96773672Y-107087545D01*
X96772439Y-107091175D01*
X96770891Y-107094621D01*
X96770455Y-107095515D01*
X96760931Y-107109557D01*
X96747772Y-107121278D01*
X96736413Y-107127773D01*
X96732381Y-107129350D01*
X96727677Y-107130529D01*
X96721544Y-107131368D01*
X96713224Y-107131923D01*
X96701960Y-107132251D01*
X96686994Y-107132407D01*
X96673615Y-107132445D01*
X96656065Y-107132444D01*
X96642725Y-107132349D01*
X96632805Y-107132083D01*
X96625518Y-107131568D01*
X96620072Y-107130727D01*
X96615679Y-107129483D01*
X96611548Y-107127759D01*
X96607996Y-107126029D01*
X96598784Y-107120345D01*
X96589955Y-107113164D01*
X96586391Y-107109487D01*
X96584083Y-107106892D01*
X96582002Y-107104598D01*
X96580136Y-107102350D01*
X96578473Y-107099888D01*
X96577002Y-107096956D01*
X96575711Y-107093295D01*
X96574588Y-107088648D01*
X96573621Y-107082757D01*
X96572800Y-107075364D01*
X96572111Y-107066212D01*
X96571545Y-107055042D01*
X96571088Y-107041597D01*
X96570730Y-107025620D01*
X96570458Y-107006852D01*
X96570261Y-106985036D01*
X96570127Y-106959913D01*
X96570045Y-106931227D01*
X96570002Y-106898719D01*
X96569988Y-106862132D01*
X96569990Y-106821208D01*
X96569998Y-106775688D01*
X96570000Y-106747500D01*
X96569994Y-106699199D01*
X96569985Y-106655641D01*
X96569986Y-106616567D01*
X96570008Y-106581720D01*
X96570065Y-106550841D01*
X96570169Y-106523674D01*
X96570332Y-106499959D01*
X96570566Y-106479440D01*
X96570886Y-106461859D01*
X96571302Y-106446957D01*
X96571827Y-106434477D01*
X96572474Y-106424162D01*
X96573255Y-106415753D01*
X96574183Y-106408992D01*
X96575270Y-106403622D01*
X96576529Y-106399385D01*
X96577972Y-106396023D01*
X96579612Y-106393279D01*
X96581461Y-106390894D01*
X96583532Y-106388611D01*
X96585837Y-106386172D01*
X96587593Y-106384237D01*
X96596814Y-106375767D01*
X96607642Y-106368652D01*
X96610530Y-106367223D01*
X96615315Y-106365178D01*
X96619889Y-106363661D01*
X96625082Y-106362594D01*
X96631726Y-106361898D01*
X96640653Y-106361494D01*
X96652694Y-106361305D01*
X96668680Y-106361251D01*
X96673750Y-106361250D01*
X96690939Y-106361281D01*
X96703960Y-106361427D01*
X96713643Y-106361766D01*
X96720819Y-106362376D01*
X96726320Y-106363336D01*
X96730975Y-106364724D01*
X96735616Y-106366618D01*
X96736925Y-106367204D01*
X96744021Y-106370677D01*
X96750314Y-106374536D01*
X96756091Y-106379235D01*
X96761642Y-106385229D01*
X96767254Y-106392973D01*
X96773217Y-106402921D01*
X96779820Y-106415528D01*
X96787350Y-106431250D01*
X96796096Y-106450540D01*
X96806347Y-106473853D01*
X96810131Y-106482558D01*
X96846250Y-106565792D01*
X96847500Y-106487271D01*
X96847889Y-106463883D01*
X96848315Y-106444910D01*
X96848897Y-106429763D01*
X96849751Y-106417858D01*
X96850996Y-106408608D01*
X96852750Y-106401427D01*
X96855132Y-106395730D01*
X96858259Y-106390929D01*
X96862250Y-106386441D01*
X96867222Y-106381677D01*
X96869138Y-106379908D01*
X96875735Y-106374035D01*
X96881683Y-106369542D01*
X96887782Y-106366245D01*
X96894830Y-106363960D01*
X96903626Y-106362502D01*
X96914969Y-106361687D01*
X96929658Y-106361331D01*
X96948490Y-106361250D01*
X96950000Y-106361250D01*
X96967563Y-106361288D01*
G37*
G36*
X93316508Y-105760391D02*
G01*
X93393121Y-105760397D01*
X93473818Y-105760408D01*
X93558705Y-105760423D01*
X93647888Y-105760442D01*
X93741472Y-105760465D01*
X93839564Y-105760492D01*
X93942268Y-105760523D01*
X94049691Y-105760556D01*
X94161938Y-105760593D01*
X94238911Y-105760619D01*
X96076509Y-105761250D01*
X96095591Y-105770680D01*
X96113284Y-105781417D01*
X96127487Y-105794733D01*
X96139100Y-105811555D01*
X96143474Y-105820000D01*
X96146946Y-105827617D01*
X96149197Y-105834025D01*
X96150490Y-105840696D01*
X96151085Y-105849105D01*
X96151246Y-105860725D01*
X96151250Y-105863750D01*
X96151154Y-105876175D01*
X96150690Y-105885069D01*
X96149588Y-105891898D01*
X96147580Y-105898132D01*
X96144396Y-105905235D01*
X96143207Y-105907684D01*
X96131590Y-105926002D01*
X96116299Y-105941745D01*
X96098234Y-105954206D01*
X96078296Y-105962680D01*
X96070501Y-105964689D01*
X96068162Y-105964882D01*
X96062958Y-105965068D01*
X96054819Y-105965245D01*
X96043675Y-105965415D01*
X96029456Y-105965578D01*
X96012091Y-105965733D01*
X95991510Y-105965881D01*
X95967643Y-105966021D01*
X95940419Y-105966155D01*
X95909769Y-105966281D01*
X95875622Y-105966400D01*
X95837907Y-105966513D01*
X95796555Y-105966619D01*
X95751494Y-105966718D01*
X95702656Y-105966811D01*
X95649969Y-105966898D01*
X95593364Y-105966978D01*
X95532769Y-105967053D01*
X95468115Y-105967121D01*
X95399332Y-105967183D01*
X95326349Y-105967240D01*
X95249095Y-105967291D01*
X95167501Y-105967336D01*
X95081497Y-105967376D01*
X94991011Y-105967411D01*
X94895974Y-105967440D01*
X94796316Y-105967464D01*
X94691966Y-105967484D01*
X94582854Y-105967498D01*
X94468909Y-105967508D01*
X94350062Y-105967513D01*
X94303001Y-105967513D01*
X94176129Y-105967518D01*
X94053867Y-105967530D01*
X93936229Y-105967548D01*
X93823232Y-105967574D01*
X93714891Y-105967607D01*
X93611219Y-105967646D01*
X93512234Y-105967693D01*
X93417949Y-105967746D01*
X93328380Y-105967806D01*
X93243542Y-105967874D01*
X93163450Y-105967948D01*
X93088119Y-105968029D01*
X93017564Y-105968116D01*
X92951801Y-105968211D01*
X92890845Y-105968312D01*
X92834710Y-105968420D01*
X92783412Y-105968535D01*
X92736966Y-105968657D01*
X92695387Y-105968785D01*
X92658691Y-105968920D01*
X92626892Y-105969061D01*
X92600005Y-105969209D01*
X92578045Y-105969364D01*
X92561029Y-105969525D01*
X92548970Y-105969693D01*
X92541884Y-105969868D01*
X92539814Y-105970010D01*
X92531857Y-105973578D01*
X92524983Y-105978770D01*
X92524814Y-105978947D01*
X92518750Y-105985402D01*
X92518119Y-106482076D01*
X92518066Y-106532830D01*
X92518034Y-106582975D01*
X92518023Y-106632221D01*
X92518032Y-106680276D01*
X92518060Y-106726850D01*
X92518108Y-106771650D01*
X92518173Y-106814386D01*
X92518256Y-106854766D01*
X92518356Y-106892500D01*
X92518472Y-106927296D01*
X92518603Y-106958863D01*
X92518749Y-106986909D01*
X92518909Y-107011144D01*
X92519082Y-107031276D01*
X92519268Y-107047014D01*
X92519466Y-107058067D01*
X92519482Y-107058750D01*
X92520070Y-107081281D01*
X92520619Y-107099374D01*
X92521171Y-107113590D01*
X92521767Y-107124491D01*
X92522449Y-107132639D01*
X92523259Y-107138593D01*
X92524239Y-107142916D01*
X92525430Y-107146170D01*
X92526080Y-107147500D01*
X92531598Y-107156799D01*
X92538159Y-107165211D01*
X92546540Y-107173470D01*
X92557519Y-107182312D01*
X92571874Y-107192472D01*
X92577964Y-107196558D01*
X92590891Y-107205441D01*
X92603818Y-107214843D01*
X92615468Y-107223801D01*
X92624562Y-107231353D01*
X92626651Y-107233247D01*
X92648613Y-107256821D01*
X92668295Y-107283973D01*
X92685007Y-107313544D01*
X92698061Y-107344373D01*
X92704069Y-107363808D01*
X92708132Y-107383782D01*
X92710884Y-107406907D01*
X92712255Y-107431492D01*
X92712180Y-107455846D01*
X92710590Y-107478277D01*
X92709061Y-107489089D01*
X92699992Y-107527455D01*
X92686629Y-107563427D01*
X92669189Y-107596769D01*
X92647889Y-107627246D01*
X92622945Y-107654623D01*
X92594574Y-107678663D01*
X92562993Y-107699131D01*
X92528417Y-107715793D01*
X92491064Y-107728411D01*
X92488282Y-107729155D01*
X92478068Y-107731661D01*
X92468601Y-107733484D01*
X92458657Y-107734757D01*
X92447011Y-107735611D01*
X92432437Y-107736175D01*
X92420000Y-107736466D01*
X92399310Y-107736662D01*
X92382843Y-107736316D01*
X92369849Y-107735397D01*
X92359574Y-107733869D01*
X92359063Y-107733765D01*
X92322624Y-107723677D01*
X92287691Y-107708934D01*
X92254650Y-107689755D01*
X92223891Y-107666358D01*
X92201205Y-107644771D01*
X92176987Y-107615968D01*
X92156529Y-107584493D01*
X92140233Y-107551056D01*
X92128500Y-107516368D01*
X92128322Y-107515693D01*
X92124655Y-107497724D01*
X92122009Y-107476479D01*
X92120465Y-107453597D01*
X92120349Y-107446197D01*
X92326250Y-107446197D01*
X92326489Y-107458227D01*
X92327423Y-107467072D01*
X92329373Y-107474535D01*
X92332661Y-107482418D01*
X92332752Y-107482614D01*
X92344006Y-107501196D01*
X92358616Y-107516629D01*
X92375933Y-107528313D01*
X92387513Y-107533330D01*
X92402185Y-107536574D01*
X92419031Y-107537329D01*
X92435915Y-107535637D01*
X92449281Y-107532093D01*
X92463532Y-107524588D01*
X92477276Y-107513459D01*
X92489209Y-107500021D01*
X92498022Y-107485587D01*
X92499866Y-107481250D01*
X92505584Y-107459903D01*
X92506690Y-107439038D01*
X92503418Y-107419205D01*
X92496004Y-107400954D01*
X92484685Y-107384835D01*
X92469695Y-107371399D01*
X92451270Y-107361196D01*
X92447881Y-107359848D01*
X92433169Y-107356240D01*
X92416340Y-107355174D01*
X92399340Y-107356579D01*
X92384113Y-107360383D01*
X92379299Y-107362392D01*
X92362001Y-107373290D01*
X92346987Y-107387904D01*
X92335420Y-107405077D01*
X92334451Y-107406985D01*
X92330409Y-107415690D01*
X92327962Y-107422865D01*
X92326717Y-107430380D01*
X92326284Y-107440109D01*
X92326250Y-107446197D01*
X92120349Y-107446197D01*
X92120105Y-107430713D01*
X92121012Y-107409463D01*
X92122363Y-107396999D01*
X92129600Y-107363195D01*
X92141345Y-107329750D01*
X92157137Y-107297584D01*
X92176515Y-107267617D01*
X92199019Y-107240769D01*
X92202288Y-107237418D01*
X92217100Y-107223233D01*
X92231410Y-107211262D01*
X92246779Y-107200335D01*
X92264766Y-107189280D01*
X92271673Y-107185330D01*
X92287707Y-107175427D01*
X92299405Y-107166088D01*
X92307311Y-107156785D01*
X92311966Y-107146988D01*
X92312349Y-107145693D01*
X92312660Y-107142424D01*
X92312951Y-107134899D01*
X92313221Y-107123072D01*
X92313471Y-107106896D01*
X92313702Y-107086323D01*
X92313912Y-107061305D01*
X92314104Y-107031797D01*
X92314276Y-106997750D01*
X92314428Y-106959118D01*
X92314562Y-106915853D01*
X92314677Y-106867908D01*
X92314774Y-106815237D01*
X92314852Y-106757791D01*
X92314912Y-106695524D01*
X92314954Y-106628388D01*
X92314979Y-106556337D01*
X92314986Y-106495966D01*
X92314997Y-106420133D01*
X92315029Y-106348819D01*
X92315080Y-106282053D01*
X92315151Y-106219870D01*
X92315241Y-106162299D01*
X92315350Y-106109374D01*
X92315479Y-106061127D01*
X92315627Y-106017588D01*
X92315794Y-105978790D01*
X92315979Y-105944765D01*
X92316184Y-105915545D01*
X92316407Y-105891161D01*
X92316648Y-105871646D01*
X92316908Y-105857032D01*
X92317186Y-105847350D01*
X92317482Y-105842632D01*
X92317519Y-105842399D01*
X92323996Y-105820613D01*
X92334472Y-105801522D01*
X92348594Y-105785517D01*
X92366014Y-105772992D01*
X92386380Y-105764338D01*
X92387563Y-105763987D01*
X92388709Y-105763736D01*
X92390449Y-105763495D01*
X92392891Y-105763266D01*
X92396139Y-105763047D01*
X92400300Y-105762838D01*
X92405479Y-105762639D01*
X92411781Y-105762450D01*
X92419314Y-105762271D01*
X92428182Y-105762102D01*
X92438491Y-105761942D01*
X92450347Y-105761790D01*
X92463855Y-105761648D01*
X92479121Y-105761515D01*
X92496252Y-105761390D01*
X92515352Y-105761274D01*
X92536528Y-105761166D01*
X92559885Y-105761065D01*
X92585529Y-105760973D01*
X92613565Y-105760888D01*
X92644100Y-105760811D01*
X92677239Y-105760740D01*
X92713088Y-105760677D01*
X92751752Y-105760621D01*
X92793337Y-105760571D01*
X92837950Y-105760528D01*
X92885695Y-105760491D01*
X92936679Y-105760460D01*
X92991006Y-105760435D01*
X93048784Y-105760416D01*
X93110117Y-105760402D01*
X93175112Y-105760393D01*
X93243873Y-105760390D01*
X93316508Y-105760391D01*
G37*
G36*
X97628330Y-105762628D02*
G01*
X97652964Y-105767181D01*
X97677006Y-105774487D01*
X97701801Y-105784826D01*
X97712550Y-105790033D01*
X97745563Y-105809354D01*
X97775778Y-105832694D01*
X97802891Y-105859739D01*
X97826599Y-105890176D01*
X97846595Y-105923690D01*
X97851452Y-105933506D01*
X97861648Y-105957504D01*
X97868953Y-105980885D01*
X97873735Y-106005232D01*
X97876360Y-106032131D01*
X97876857Y-106043000D01*
X97877173Y-106067776D01*
X97876151Y-106089196D01*
X97873599Y-106108769D01*
X97869324Y-106128008D01*
X97863546Y-106147182D01*
X97849447Y-106182715D01*
X97831799Y-106214882D01*
X97810421Y-106243901D01*
X97785129Y-106269990D01*
X97755742Y-106293369D01*
X97725826Y-106312169D01*
X97709792Y-106322072D01*
X97698094Y-106331411D01*
X97690188Y-106340714D01*
X97685533Y-106350511D01*
X97685150Y-106351806D01*
X97684839Y-106355075D01*
X97684548Y-106362600D01*
X97684278Y-106374427D01*
X97684028Y-106390603D01*
X97683797Y-106411176D01*
X97683587Y-106436194D01*
X97683395Y-106465702D01*
X97683223Y-106499749D01*
X97683071Y-106538381D01*
X97682937Y-106581646D01*
X97682822Y-106629591D01*
X97682725Y-106682262D01*
X97682647Y-106739708D01*
X97682587Y-106801975D01*
X97682545Y-106869111D01*
X97682520Y-106941162D01*
X97682513Y-107001533D01*
X97682502Y-107077366D01*
X97682470Y-107148680D01*
X97682419Y-107215446D01*
X97682348Y-107277629D01*
X97682258Y-107335200D01*
X97682149Y-107388125D01*
X97682020Y-107436372D01*
X97681872Y-107479911D01*
X97681705Y-107518709D01*
X97681520Y-107552734D01*
X97681315Y-107581954D01*
X97681092Y-107606338D01*
X97680851Y-107625853D01*
X97680591Y-107640467D01*
X97680313Y-107650149D01*
X97680017Y-107654867D01*
X97679980Y-107655100D01*
X97673493Y-107676915D01*
X97662998Y-107696021D01*
X97648834Y-107712037D01*
X97631342Y-107724580D01*
X97610862Y-107733269D01*
X97610171Y-107733477D01*
X97609044Y-107733730D01*
X97607336Y-107733972D01*
X97604942Y-107734203D01*
X97601756Y-107734425D01*
X97597672Y-107734636D01*
X97592584Y-107734837D01*
X97586386Y-107735029D01*
X97578972Y-107735212D01*
X97570237Y-107735385D01*
X97560074Y-107735549D01*
X97548378Y-107735705D01*
X97535043Y-107735852D01*
X97519962Y-107735991D01*
X97503031Y-107736121D01*
X97484143Y-107736244D01*
X97463192Y-107736360D01*
X97440072Y-107736468D01*
X97414679Y-107736569D01*
X97386904Y-107736663D01*
X97356644Y-107736750D01*
X97323791Y-107736831D01*
X97288241Y-107736906D01*
X97249886Y-107736974D01*
X97208622Y-107737037D01*
X97164342Y-107737094D01*
X97116941Y-107737147D01*
X97066312Y-107737194D01*
X97012351Y-107737236D01*
X96954950Y-107737273D01*
X96894004Y-107737306D01*
X96829407Y-107737335D01*
X96761054Y-107737360D01*
X96688838Y-107737381D01*
X96612653Y-107737399D01*
X96532395Y-107737414D01*
X96447956Y-107737425D01*
X96359230Y-107737434D01*
X96266113Y-107737440D01*
X96168498Y-107737443D01*
X96066280Y-107737445D01*
X95959351Y-107737445D01*
X95847608Y-107737443D01*
X95761421Y-107737440D01*
X93926250Y-107737381D01*
X93911666Y-107731385D01*
X93892040Y-107721589D01*
X93876335Y-107709632D01*
X93863646Y-107694657D01*
X93853192Y-107676075D01*
X93850057Y-107668903D01*
X93848034Y-107662521D01*
X93846883Y-107655478D01*
X93846367Y-107646325D01*
X93846250Y-107633750D01*
X93846345Y-107621324D01*
X93846809Y-107612430D01*
X93847911Y-107605601D01*
X93849919Y-107599367D01*
X93853103Y-107592264D01*
X93854292Y-107589815D01*
X93865909Y-107571497D01*
X93881200Y-107555754D01*
X93899265Y-107543293D01*
X93919203Y-107534819D01*
X93926998Y-107532810D01*
X93929337Y-107532617D01*
X93934541Y-107532431D01*
X93942680Y-107532254D01*
X93953824Y-107532084D01*
X93968043Y-107531921D01*
X93985408Y-107531766D01*
X94005989Y-107531618D01*
X94029856Y-107531478D01*
X94057080Y-107531344D01*
X94087730Y-107531218D01*
X94121877Y-107531099D01*
X94159592Y-107530986D01*
X94200944Y-107530880D01*
X94246005Y-107530781D01*
X94294843Y-107530688D01*
X94347530Y-107530601D01*
X94404135Y-107530521D01*
X94464730Y-107530446D01*
X94529384Y-107530378D01*
X94598167Y-107530316D01*
X94671150Y-107530259D01*
X94748404Y-107530208D01*
X94829998Y-107530163D01*
X94916002Y-107530123D01*
X95006488Y-107530088D01*
X95101525Y-107530059D01*
X95201183Y-107530035D01*
X95305533Y-107530015D01*
X95414645Y-107530001D01*
X95528590Y-107529991D01*
X95647437Y-107529986D01*
X95694498Y-107529986D01*
X95821370Y-107529981D01*
X95943632Y-107529969D01*
X96061270Y-107529951D01*
X96174267Y-107529925D01*
X96282608Y-107529892D01*
X96386280Y-107529853D01*
X96485265Y-107529806D01*
X96579550Y-107529753D01*
X96669119Y-107529693D01*
X96753957Y-107529625D01*
X96834049Y-107529551D01*
X96909380Y-107529470D01*
X96979935Y-107529383D01*
X97045698Y-107529288D01*
X97106654Y-107529187D01*
X97162789Y-107529079D01*
X97214087Y-107528964D01*
X97260533Y-107528842D01*
X97302112Y-107528714D01*
X97338808Y-107528579D01*
X97370607Y-107528438D01*
X97397494Y-107528290D01*
X97419454Y-107528135D01*
X97436470Y-107527974D01*
X97448529Y-107527806D01*
X97455615Y-107527631D01*
X97457685Y-107527489D01*
X97465642Y-107523921D01*
X97472516Y-107518730D01*
X97472685Y-107518552D01*
X97478750Y-107512097D01*
X97479375Y-107027923D01*
X97479429Y-106977565D01*
X97479461Y-106927676D01*
X97479472Y-106878561D01*
X97479462Y-106830525D01*
X97479432Y-106783876D01*
X97479383Y-106738918D01*
X97479315Y-106695956D01*
X97479230Y-106655298D01*
X97479127Y-106617248D01*
X97479008Y-106582113D01*
X97478874Y-106550197D01*
X97478724Y-106521807D01*
X97478560Y-106497248D01*
X97478383Y-106476826D01*
X97478193Y-106460848D01*
X97478028Y-106451250D01*
X97477490Y-106426974D01*
X97476993Y-106407182D01*
X97476503Y-106391356D01*
X97475987Y-106378981D01*
X97475410Y-106369539D01*
X97474740Y-106362515D01*
X97473943Y-106357392D01*
X97472984Y-106353654D01*
X97471831Y-106350784D01*
X97471434Y-106350000D01*
X97465897Y-106340690D01*
X97459329Y-106332276D01*
X97450950Y-106324021D01*
X97439979Y-106315186D01*
X97425637Y-106305035D01*
X97419535Y-106300941D01*
X97406608Y-106292058D01*
X97393681Y-106282656D01*
X97382031Y-106273698D01*
X97372937Y-106266146D01*
X97370848Y-106264252D01*
X97348860Y-106240647D01*
X97329140Y-106213416D01*
X97312345Y-106183670D01*
X97299137Y-106152518D01*
X97293229Y-106133691D01*
X97290885Y-106124740D01*
X97289155Y-106116964D01*
X97287947Y-106109344D01*
X97287170Y-106100864D01*
X97286733Y-106090506D01*
X97286545Y-106077252D01*
X97286515Y-106060086D01*
X97286517Y-106058750D01*
X97286524Y-106057085D01*
X97490600Y-106057085D01*
X97493939Y-106077395D01*
X97501868Y-106096999D01*
X97505459Y-106103117D01*
X97517981Y-106118266D01*
X97534407Y-106130420D01*
X97547053Y-106136688D01*
X97561367Y-106140705D01*
X97578022Y-106142238D01*
X97595120Y-106141328D01*
X97610763Y-106138018D01*
X97618200Y-106135122D01*
X97635537Y-106124180D01*
X97650569Y-106109527D01*
X97662133Y-106092319D01*
X97663048Y-106090514D01*
X97667090Y-106081809D01*
X97669537Y-106074634D01*
X97670782Y-106067119D01*
X97671215Y-106057390D01*
X97671250Y-106051302D01*
X97671015Y-106039323D01*
X97670092Y-106030513D01*
X97668151Y-106023054D01*
X97664864Y-106015130D01*
X97664598Y-106014562D01*
X97653207Y-105996040D01*
X97637976Y-105980541D01*
X97621880Y-105969854D01*
X97612915Y-105965447D01*
X97605027Y-105962764D01*
X97596154Y-105961281D01*
X97585000Y-105960513D01*
X97565876Y-105961008D01*
X97549580Y-105964761D01*
X97534797Y-105972236D01*
X97521272Y-105982914D01*
X97507185Y-105998983D01*
X97497316Y-106017172D01*
X97491757Y-106036775D01*
X97490600Y-106057085D01*
X97286524Y-106057085D01*
X97286586Y-106041149D01*
X97286806Y-106027535D01*
X97287267Y-106016894D01*
X97288058Y-106008214D01*
X97289269Y-106000481D01*
X97290988Y-105992683D01*
X97293031Y-105984815D01*
X97305645Y-105946458D01*
X97321892Y-105911518D01*
X97341828Y-105879920D01*
X97365509Y-105851590D01*
X97392988Y-105826452D01*
X97424322Y-105804431D01*
X97427333Y-105802600D01*
X97457136Y-105786607D01*
X97486890Y-105774720D01*
X97517739Y-105766607D01*
X97550829Y-105761935D01*
X97571918Y-105760657D01*
X97601763Y-105760547D01*
X97628330Y-105762628D01*
G37*
D10*
%TO.C,D19*%
X111660000Y-100000000D02*
G75*
G02*
X111560000Y-100000000I-50000J0D01*
G01*
X111560000Y-100000000D02*
G75*
G02*
X111660000Y-100000000I50000J0D01*
G01*
D12*
%TO.C,U2*%
X97890000Y-97890000D02*
X98115000Y-97890000D01*
X97890000Y-98115000D02*
X97890000Y-97890000D01*
X97890000Y-101885000D02*
X97890000Y-102110000D01*
X97890000Y-102110000D02*
X98115000Y-102110000D01*
X102110000Y-101885000D02*
X102110000Y-102110000D01*
X102110000Y-102110000D02*
X101885000Y-102110000D01*
X102440000Y-98110000D02*
X102110000Y-97870000D01*
X102440000Y-97630000D01*
X102440000Y-98110000D01*
G36*
X102440000Y-98110000D02*
G01*
X102110000Y-97870000D01*
X102440000Y-97630000D01*
X102440000Y-98110000D01*
G37*
D10*
%TO.C,D56*%
X86690000Y-100000000D02*
G75*
G02*
X86590000Y-100000000I-50000J0D01*
G01*
X86590000Y-100000000D02*
G75*
G02*
X86690000Y-100000000I50000J0D01*
G01*
%TO.C,D5*%
X104178755Y-87294091D02*
G75*
G02*
X104078755Y-87294091I-50000J0D01*
G01*
X104078755Y-87294091D02*
G75*
G02*
X104178755Y-87294091I50000J0D01*
G01*
%TO.C,D27*%
X110858755Y-107852495D02*
G75*
G02*
X110758755Y-107852495I-50000J0D01*
G01*
X110758755Y-107852495D02*
G75*
G02*
X110858755Y-107852495I50000J0D01*
G01*
%TD*%
%LPC*%
D14*
X108300000Y-101500000D02*
G75*
G02*
X107700000Y-101500000I-300000J0D01*
G01*
X107700000Y-101500000D02*
G75*
G02*
X108300000Y-101500000I300000J0D01*
G01*
D15*
X102975000Y-97000000D02*
G75*
G02*
X102725000Y-97000000I-125000J0D01*
G01*
X102725000Y-97000000D02*
G75*
G02*
X102975000Y-97000000I125000J0D01*
G01*
D14*
X108300000Y-100000000D02*
G75*
G02*
X107700000Y-100000000I-300000J0D01*
G01*
X107700000Y-100000000D02*
G75*
G02*
X108300000Y-100000000I300000J0D01*
G01*
D15*
X100250000Y-96250000D02*
G75*
G02*
X100000000Y-96250000I-125000J0D01*
G01*
X100000000Y-96250000D02*
G75*
G02*
X100250000Y-96250000I125000J0D01*
G01*
D14*
X108300000Y-98500000D02*
G75*
G02*
X107700000Y-98500000I-300000J0D01*
G01*
X107700000Y-98500000D02*
G75*
G02*
X108300000Y-98500000I300000J0D01*
G01*
D16*
%TO.C,D11*%
X109526806Y-91421878D03*
X109051194Y-91850122D03*
%TD*%
D17*
%TO.C,D72*%
X97334468Y-87459993D03*
X97467532Y-88086007D03*
%TD*%
D18*
%TO.C,D39*%
X98659551Y-112750247D03*
X98726449Y-112113753D03*
%TD*%
D19*
%TO.C,D54*%
X87249753Y-101340449D03*
X87886247Y-101273551D03*
%TD*%
D20*
%TO.C,D6*%
X105214156Y-88288665D03*
X104953844Y-88873335D03*
%TD*%
D21*
%TO.C,D66*%
X92464908Y-89628115D03*
X92841092Y-90145885D03*
%TD*%
D22*
%TO.C,SW2*%
X93000000Y-94750000D03*
X97369800Y-94750000D03*
%TD*%
D23*
%TO.C,D3*%
X101340449Y-87249753D03*
X101273551Y-87886247D03*
%TD*%
D24*
%TO.C,D63*%
X89628115Y-92464909D03*
X90145885Y-92841091D03*
%TD*%
D25*
%TO.C,D29*%
X108578122Y-109526806D03*
X108149878Y-109051194D03*
%TD*%
D26*
%TO.C,D58*%
X87459993Y-97334468D03*
X88086007Y-97467532D03*
%TD*%
D27*
%TO.C,D67*%
X94465000Y-90413072D03*
X94785000Y-90967328D03*
%TD*%
D28*
%TO.C,D38*%
X100000000Y-112820000D03*
X100000000Y-112180000D03*
%TD*%
D29*
%TO.C,U1*%
X96000000Y-100837500D03*
X95500000Y-100837500D03*
X95000000Y-100837500D03*
X94500000Y-100837500D03*
D30*
X94337500Y-101500000D03*
X94337500Y-102000000D03*
X94337500Y-102500000D03*
D29*
X94500000Y-103162500D03*
X95000000Y-103162500D03*
X95500000Y-103162500D03*
X96000000Y-103162500D03*
D30*
X96162500Y-102500000D03*
X96162500Y-102000000D03*
X96162500Y-101500000D03*
%TD*%
D31*
%TO.C,D42*%
X94785844Y-111711335D03*
X95046156Y-111126665D03*
%TD*%
D32*
%TO.C,C3*%
X104070000Y-97500000D03*
X103430000Y-97500000D03*
%TD*%
D33*
%TO.C,D8*%
X106410000Y-88897872D03*
X106090000Y-89452128D03*
%TD*%
D34*
%TO.C,D43*%
X94465000Y-109586928D03*
X94785000Y-109032672D03*
%TD*%
D35*
%TO.C,D10*%
X108578122Y-90473194D03*
X108149878Y-90948806D03*
%TD*%
D36*
%TO.C,D16*%
X112192338Y-96038115D03*
X111583662Y-96235885D03*
%TD*%
D37*
%TO.C,D26*%
X111102128Y-106410000D03*
X110547872Y-106090000D03*
%TD*%
D38*
%TO.C,D51*%
X88288665Y-105214156D03*
X88873335Y-104953844D03*
%TD*%
D39*
%TO.C,D13*%
X109586928Y-94465000D03*
X109032672Y-94785000D03*
%TD*%
D33*
%TO.C,D7*%
X105535001Y-90413071D03*
X105214999Y-90967329D03*
%TD*%
D40*
%TO.C,D35*%
X102665532Y-112540007D03*
X102532468Y-111913993D03*
%TD*%
D41*
%TO.C,D48*%
X89628115Y-107535092D03*
X90145885Y-107158908D03*
%TD*%
D28*
%TO.C,D37*%
X100000000Y-111070000D03*
X100000000Y-110430000D03*
%TD*%
D42*
%TO.C,C5*%
X99480000Y-104000000D03*
X98520000Y-104000000D03*
%TD*%
D43*
%TO.C,D50*%
X88897872Y-106410000D03*
X89452128Y-106090000D03*
%TD*%
%TO.C,D49*%
X90413072Y-105535000D03*
X90967328Y-105215000D03*
%TD*%
D44*
%TO.C,D24*%
X111711335Y-105214155D03*
X111126665Y-104953845D03*
%TD*%
D45*
%TO.C,D17*%
X112540007Y-97334468D03*
X111913993Y-97467532D03*
%TD*%
D46*
%TO.C,D34*%
X103961885Y-112192338D03*
X103764115Y-111583662D03*
%TD*%
D47*
%TO.C,D9*%
X107535092Y-89628114D03*
X107158908Y-90145886D03*
%TD*%
D48*
%TO.C,D4*%
X102665532Y-87459993D03*
X102532468Y-88086007D03*
%TD*%
D49*
%TO.C,D65*%
X91421879Y-90473193D03*
X91850121Y-90948807D03*
%TD*%
D50*
%TO.C,D59*%
X87807662Y-96038114D03*
X88416338Y-96235886D03*
%TD*%
D51*
%TO.C,D55*%
X88930000Y-100000000D03*
X89570000Y-100000000D03*
%TD*%
D22*
%TO.C,SW1*%
X102380200Y-105250000D03*
X106750000Y-105250000D03*
%TD*%
D52*
%TO.C,C2*%
X100750000Y-95930000D03*
X100750000Y-96570000D03*
%TD*%
D53*
%TO.C,D36*%
X101340449Y-112750247D03*
X101273551Y-112113753D03*
%TD*%
D54*
%TO.C,D21*%
X112750247Y-101340449D03*
X112113753Y-101273551D03*
%TD*%
D55*
%TO.C,D23*%
X112192338Y-103961885D03*
X111583662Y-103764115D03*
%TD*%
D27*
%TO.C,D68*%
X93590000Y-88897872D03*
X93910000Y-89452128D03*
%TD*%
D56*
%TO.C,D33*%
X105214156Y-111711335D03*
X104953844Y-111126665D03*
%TD*%
D57*
%TO.C,D64*%
X90473194Y-91421879D03*
X90948806Y-91850121D03*
%TD*%
D58*
%TO.C,D45*%
X92464909Y-110371885D03*
X92841091Y-109854115D03*
%TD*%
D59*
%TO.C,D31*%
X105535000Y-109586928D03*
X105215000Y-109032672D03*
%TD*%
%TO.C,D32*%
X106410000Y-111102128D03*
X106090000Y-110547872D03*
%TD*%
D60*
%TO.C,D70*%
X96038114Y-87807661D03*
X96235886Y-88416339D03*
%TD*%
D61*
%TO.C,D53*%
X87459993Y-102665531D03*
X88086007Y-102532469D03*
%TD*%
D62*
%TO.C,D30*%
X107535091Y-110371885D03*
X107158909Y-109854115D03*
%TD*%
D63*
%TO.C,Y1*%
X102050000Y-94500000D03*
X100950000Y-94500000D03*
%TD*%
D64*
%TO.C,D47*%
X90473194Y-108578123D03*
X90948806Y-108149877D03*
%TD*%
D65*
%TO.C,D62*%
X88897871Y-93589999D03*
X89452129Y-93910001D03*
%TD*%
D66*
%TO.C,D15*%
X111711335Y-94785844D03*
X111126665Y-95046156D03*
%TD*%
D67*
%TO.C,D60*%
X88288665Y-94785845D03*
X88873335Y-95046155D03*
%TD*%
D68*
%TO.C,D28*%
X109526806Y-108578122D03*
X109051194Y-108149878D03*
%TD*%
D69*
%TO.C,D52*%
X87807661Y-103961886D03*
X88416339Y-103764114D03*
%TD*%
D70*
%TO.C,D40*%
X97334468Y-112540007D03*
X97467532Y-111913993D03*
%TD*%
D65*
%TO.C,D61*%
X90413072Y-94465000D03*
X90967328Y-94785000D03*
%TD*%
D37*
%TO.C,D25*%
X109586928Y-105535000D03*
X109032672Y-105215000D03*
%TD*%
D71*
%TO.C,D18*%
X112750247Y-98659551D03*
X112113753Y-98726449D03*
%TD*%
D72*
%TO.C,D71*%
X98659551Y-87249753D03*
X98726449Y-87886247D03*
%TD*%
D34*
%TO.C,D44*%
X93590000Y-111102128D03*
X93910000Y-110547872D03*
%TD*%
D52*
%TO.C,D1*%
X100000000Y-88930000D03*
X100000000Y-89570000D03*
%TD*%
D73*
%TO.C,D12*%
X110371885Y-92464909D03*
X109854115Y-92841091D03*
%TD*%
D74*
%TO.C,D69*%
X94785844Y-88288665D03*
X95046156Y-88873335D03*
%TD*%
D52*
%TO.C,D2*%
X100000000Y-87180000D03*
X100000000Y-87820000D03*
%TD*%
D32*
%TO.C,D20*%
X112820000Y-100000000D03*
X112180000Y-100000000D03*
%TD*%
D75*
%TO.C,D46*%
X91421878Y-109526806D03*
X91850122Y-109051194D03*
%TD*%
D76*
%TO.C,D57*%
X87249753Y-98659551D03*
X87886247Y-98726449D03*
%TD*%
D77*
%TO.C,D41*%
X96038115Y-112192338D03*
X96235885Y-111583662D03*
%TD*%
D78*
%TO.C,D22*%
X112540007Y-102665532D03*
X111913993Y-102532468D03*
%TD*%
D39*
%TO.C,D14*%
X111102128Y-93590000D03*
X110547872Y-93910000D03*
%TD*%
D32*
%TO.C,D19*%
X111070000Y-100000000D03*
X110430000Y-100000000D03*
%TD*%
D52*
%TO.C,C1*%
X102250000Y-95930000D03*
X102250000Y-96570000D03*
%TD*%
D79*
%TO.C,U2*%
X101500000Y-98002500D03*
D80*
X101000000Y-98062500D03*
X100500000Y-98062500D03*
X100000000Y-98062500D03*
X99500000Y-98062500D03*
X99000000Y-98062500D03*
D81*
X98500000Y-98002500D03*
D82*
X98002500Y-98500000D03*
D83*
X98062500Y-99000000D03*
X98062500Y-99500000D03*
X98062500Y-100000000D03*
X98062500Y-100500000D03*
X98062500Y-101000000D03*
D84*
X98002500Y-101500000D03*
D85*
X98500000Y-101997500D03*
D80*
X99000000Y-101937500D03*
X99500000Y-101937500D03*
X100000000Y-101937500D03*
X100500000Y-101937500D03*
X101000000Y-101937500D03*
D86*
X101500000Y-101997500D03*
D87*
X101997500Y-101500000D03*
D83*
X101937500Y-101000000D03*
X101937500Y-100500000D03*
X101937500Y-100000000D03*
X101937500Y-99500000D03*
X101937500Y-99000000D03*
D88*
X101997500Y-98500000D03*
%TD*%
D51*
%TO.C,D56*%
X87180000Y-100000000D03*
X87820000Y-100000000D03*
%TD*%
D28*
%TO.C,C4*%
X99500000Y-96570000D03*
X99500000Y-95930000D03*
%TD*%
D89*
%TO.C,D5*%
X103961885Y-87807662D03*
X103764115Y-88416338D03*
%TD*%
D90*
%TO.C,D27*%
X110371885Y-107535091D03*
X109854115Y-107158909D03*
%TD*%
%LPD*%
M02*
