M48
; DRILL file {KiCad 9.0.0} date 2025-05-02T12:59:00-0500
; FORMAT={-:-/ absolute / inch / decimal}
; #@! TF.CreationDate,2025-05-02T12:59:00-05:00
; #@! TF.GenerationSoftware,Kicad,Pcbnew,9.0.0
; #@! TF.FileFunction,Plated,1,2,PTH
FMAT,2
INCH
; #@! TA.AperFunction,Plated,PTH,ViaDrill
T1C0.0118
%
G90
G05
T1
X3.4657Y-4.1774
X3.4846Y-4.0051
X3.4893Y-3.8629
X3.5012Y-3.9652
X3.5227Y-3.8036
X3.5292Y-3.7281
X3.5416Y-3.9937
X3.5416Y-4.1153
X3.5565Y-3.7527
X3.5745Y-4.0797
X3.5941Y-4.2058
X3.6046Y-3.64
X3.6086Y-3.8468
X3.6311Y-4.2324
X3.6328Y-3.7777
X3.6552Y-4.2591
X3.6683Y-3.9132
X3.6689Y-3.6338
X3.6696Y-3.7787
X3.6718Y-4.1663
X3.6891Y-4.2979
X3.6987Y-4.065
X3.7019Y-3.4654
X3.7146Y-3.6074
X3.7173Y-3.8931
X3.7205Y-4.0945
X3.7317Y-4.2618
X3.7371Y-3.6912
X3.742Y-4.3446
X3.7485Y-4.0001
X3.75Y-4.0945
X3.7649Y-3.631
X3.787Y-3.6658
X3.7888Y-3.5118
X3.8051Y-4.057
X3.8052Y-4.1726
X3.8052Y-4.2688
X3.8114Y-4.3729
X3.8386Y-4.0945
X3.8386Y-4.1508
X3.8454Y-4.0201
X3.8583Y-4.0551
X3.8623Y-4.1261
X3.8623Y-4.3159
X3.8691Y-3.8232
X3.8695Y-3.7743
X3.8843Y-3.6943
X3.8881Y-4.1783
X3.8881Y-4.2937
X3.8925Y-4.0563
X3.8945Y-3.5808
X3.9038Y-3.7195
X3.9167Y-4.2688
X3.9268Y-4.1467
X3.941Y-3.5555
X3.9459Y-3.7106
X3.9682Y-3.4135
X4.0307Y-4.0563
X4.0311Y-3.5612
X4.0453Y-3.8681
X4.0551Y-3.75
X4.0552Y-3.9036
X4.0565Y-3.9369
X4.0595Y-3.5788
X4.0677Y-4.1941
X4.0852Y-3.644
X4.0902Y-3.9155
X4.0938Y-4.2205
X4.104Y-3.75
X4.113Y-3.5692
X4.1195Y-3.6705
X4.122Y-3.6203
X4.1252Y-4.1083
X4.1422Y-4.1704
X4.1437Y-3.5291
X4.1523Y-3.6986
X4.1634Y-4.1339
X4.1672Y-4.2402
X4.1771Y-3.7743
X4.1771Y-3.8791
X4.201Y-3.8232
X4.2028Y-4.0831
X4.2126Y-3.937
X4.2126Y-3.9961
X4.2189Y-4.2937
X4.2438Y-3.8287
X4.2488Y-3.6728
X4.2522Y-3.611
X4.267Y-4.242
X4.2893Y-3.6696
X4.2913Y-3.8976
X4.3361Y-4.047
X4.3417Y-3.7353
X4.3469Y-4.1456
X4.3585Y-4.0234
X4.3805Y-3.8648
X4.4083Y-3.6956
M30
